<svg xmlns="http://www.w3.org/2000/svg" width="1200" height="630" viewBox="0 0 1200 630">
  <defs>
    <linearGradient id="g" x1="0" x2="1">
      <stop offset="0" stop-color="#fff5f5"/>
      <stop offset="1" stop-color="#ffe0e0"/>
    </linearGradient>
  </defs>
  <rect width="1200" height="630" fill="url(#g)"/>
  <g transform="translate(100 80)" fill="#FF6F61">
    <rect x="0" y="0" width="1000" height="470" rx="24" fill="#fff"/>
    <g transform="translate(40 40)" fill="#FF6F61">
      <text x="0" y="40" font-family="Segoe UI, Arial" font-size="48" fill="#FF6F61">Community Helper App</text>
      <text x="0" y="100" font-family="Segoe UI, Arial" font-size="28" fill="#333">Connecting volunteers with neighbors in need</text>
    </g>
    <g transform="translate(700 220)" fill="#FF6F61">
      <circle cx="60" cy="-60" r="40" fill="#FF6F61"/>
      <path d="M20 30c-10 0-16 6-20 10-4-4-10-10-20-10-10 0-20 8-20 22 0 22 32 34 32 34s32-12 32-34c0-14-10-22-16-22z" fill="#FF6F61"/>
    </g>
  </g>
</svg>